<svg xmlns="http://www.w3.org/2000/svg" viewBox="0 0 800 328" width="800" height="328" role="img" aria-labelledby="t d" font-family="Inter, system-ui, sans-serif"><title id="t">Fast-forward contre fusion à trois voies</title><desc id="d">À gauche, le pointeur main avance jusqu&#x27;à feature. À droite, deux branches divergent et se rejoignent par un commit de fusion.</desc><defs><marker id="a-text" viewBox="0 0 10 10" refX="8" refY="5" markerWidth="7" markerHeight="7" orient="auto-start-reverse"><path d="M0 0L10 5L0 10z" fill="#e2e8f0"/></marker><marker id="a-mute" viewBox="0 0 10 10" refX="8" refY="5" markerWidth="7" markerHeight="7" orient="auto-start-reverse"><path d="M0 0L10 5L0 10z" fill="#94a3b8"/></marker><marker id="a-red" viewBox="0 0 10 10" refX="8" refY="5" markerWidth="7" markerHeight="7" orient="auto-start-reverse"><path d="M0 0L10 5L0 10z" fill="#6366F1"/></marker><marker id="a-blue" viewBox="0 0 10 10" refX="8" refY="5" markerWidth="7" markerHeight="7" orient="auto-start-reverse"><path d="M0 0L10 5L0 10z" fill="#38bdf8"/></marker><marker id="a-green" viewBox="0 0 10 10" refX="8" refY="5" markerWidth="7" markerHeight="7" orient="auto-start-reverse"><path d="M0 0L10 5L0 10z" fill="#22c55e"/></marker><marker id="a-amber" viewBox="0 0 10 10" refX="8" refY="5" markerWidth="7" markerHeight="7" orient="auto-start-reverse"><path d="M0 0L10 5L0 10z" fill="#f59e0b"/></marker></defs><rect x="1" y="1" width="798" height="326" rx="18" fill="#0b1220" stroke="#1e293b" stroke-width="2"/><rect x="24" y="24" width="360" height="280" rx="14" fill="#0f172a" stroke="#1e293b" stroke-width="1.5"/><text x="204" y="56" font-size="18" fill="#22c55e" font-weight="700" text-anchor="middle">Fast-forward</text><text x="204" y="76" font-size="12" fill="#94a3b8" font-weight="400" text-anchor="middle">main n&#x27;a pas bougé : on avance le pointeur</text><path d="M80 150 H258" fill="none" stroke="#94a3b8" stroke-width="3"/><circle cx="64" cy="150" r="13" fill="#38bdf8" stroke="#0b1220" stroke-width="4"/><circle cx="134" cy="150" r="13" fill="#38bdf8" stroke="#0b1220" stroke-width="4"/><circle cx="204" cy="150" r="13" fill="#22c55e" stroke="#0b1220" stroke-width="4"/><circle cx="274" cy="150" r="13" fill="#22c55e" stroke="#0b1220" stroke-width="4"/><rect x="110.1" y="102" width="47.8" height="22" rx="11" fill="#38bdf8" stroke="#38bdf8" stroke-width="1.5"/><text x="134.0" y="118" font-size="12" fill="#0b1220" font-weight="700" text-anchor="middle">main</text><rect x="239.0" y="102" width="70.1" height="22" rx="11" fill="#22c55e" stroke="#22c55e" stroke-width="1.5"/><text x="274.0" y="118" font-size="12" fill="#0b1220" font-weight="700" text-anchor="middle">feature</text><text x="204" y="214" font-size="12.5" fill="#94a3b8" font-weight="700" text-anchor="middle" font-family="ui-monospace, SFMono-Regular, Menlo, monospace">après  git merge feature</text><path d="M80 250 H258" fill="none" stroke="#94a3b8" stroke-width="3"/><circle cx="64" cy="250" r="13" fill="#38bdf8" stroke="#0b1220" stroke-width="4"/><circle cx="134" cy="250" r="13" fill="#38bdf8" stroke="#0b1220" stroke-width="4"/><circle cx="204" cy="250" r="13" fill="#22c55e" stroke="#0b1220" stroke-width="4"/><circle cx="274" cy="250" r="13" fill="#22c55e" stroke="#0b1220" stroke-width="4"/><rect x="221.3" y="274" width="113.5" height="22" rx="11" fill="#38bdf8" stroke="#38bdf8" stroke-width="1.5"/><text x="278.0" y="290" font-size="11" fill="#0b1220" font-weight="700" text-anchor="middle">main = feature</text><rect x="416" y="24" width="360" height="280" rx="14" fill="#0f172a" stroke="#1e293b" stroke-width="1.5"/><text x="596" y="56" font-size="18" fill="#f59e0b" font-weight="700" text-anchor="middle">Fusion à 3 voies</text><text x="596" y="76" font-size="12" fill="#94a3b8" font-weight="400" text-anchor="middle">les deux branches ont avancé : commit de fusion</text><path d="M448 170 H524 M524 170 C548 170 548 128 574 128 H604 M524 170 C548 170 548 212 574 212 H604" fill="none" stroke="#94a3b8" stroke-width="3"/><circle cx="448" cy="170" r="13" fill="#38bdf8" stroke="#0b1220" stroke-width="4"/><circle cx="524" cy="170" r="13" fill="#38bdf8" stroke="#0b1220" stroke-width="4"/><circle cx="574" cy="128" r="13" fill="#38bdf8" stroke="#0b1220" stroke-width="4"/><circle cx="574" cy="212" r="13" fill="#22c55e" stroke="#0b1220" stroke-width="4"/><path d="M587 128 H690 M587 212 H640 C 668 212 676 166 704 166" fill="none" stroke="#94a3b8" stroke-width="3"/><path d="M587 128 C 650 128 650 166 704 166" fill="none" stroke="#94a3b8" stroke-width="3"/><circle cx="704" cy="166" r="15" fill="#6366F1" stroke="#0b1220" stroke-width="4"/><rect x="550.1" y="86" width="47.8" height="22" rx="11" fill="#38bdf8" stroke="#38bdf8" stroke-width="1.5"/><text x="574.0" y="102" font-size="12" fill="#0b1220" font-weight="700" text-anchor="middle">main</text><rect x="539.0" y="230" width="70.1" height="22" rx="11" fill="#22c55e" stroke="#22c55e" stroke-width="1.5"/><text x="574.0" y="246" font-size="12" fill="#0b1220" font-weight="700" text-anchor="middle">feature</text><rect x="680.1" y="122" width="47.8" height="22" rx="11" fill="#38bdf8" stroke="#38bdf8" stroke-width="1.5"/><text x="704.0" y="138" font-size="12" fill="#0b1220" font-weight="700" text-anchor="middle">main</text><text x="704" y="204" font-size="11.5" fill="#e2e8f0" font-weight="400" text-anchor="middle">commit de</text><text x="704" y="218" font-size="11.5" fill="#e2e8f0" font-weight="400" text-anchor="middle">fusion</text><text x="596" y="282" font-size="12" fill="#94a3b8" font-weight="400" text-anchor="middle">2 parents → l&#x27;historique « fait un losange »</text></svg>