<svg xmlns="http://www.w3.org/2000/svg" viewBox="0 0 800 320" width="800" height="320" role="img" aria-labelledby="t d" font-family="Inter, system-ui, sans-serif"><title id="t">Versionner avec Git</title><desc id="d">À gauche, des copies de fichiers nommées rapport_final_VRAI ; à droite, un historique de commits propre sur la branche main.</desc><defs><marker id="a-text" viewBox="0 0 10 10" refX="8" refY="5" markerWidth="7" markerHeight="7" orient="auto-start-reverse"><path d="M0 0L10 5L0 10z" fill="#e2e8f0"/></marker><marker id="a-mute" viewBox="0 0 10 10" refX="8" refY="5" markerWidth="7" markerHeight="7" orient="auto-start-reverse"><path d="M0 0L10 5L0 10z" fill="#94a3b8"/></marker><marker id="a-red" viewBox="0 0 10 10" refX="8" refY="5" markerWidth="7" markerHeight="7" orient="auto-start-reverse"><path d="M0 0L10 5L0 10z" fill="#6366F1"/></marker><marker id="a-blue" viewBox="0 0 10 10" refX="8" refY="5" markerWidth="7" markerHeight="7" orient="auto-start-reverse"><path d="M0 0L10 5L0 10z" fill="#38bdf8"/></marker><marker id="a-green" viewBox="0 0 10 10" refX="8" refY="5" markerWidth="7" markerHeight="7" orient="auto-start-reverse"><path d="M0 0L10 5L0 10z" fill="#22c55e"/></marker><marker id="a-amber" viewBox="0 0 10 10" refX="8" refY="5" markerWidth="7" markerHeight="7" orient="auto-start-reverse"><path d="M0 0L10 5L0 10z" fill="#f59e0b"/></marker></defs><rect x="1" y="1" width="798" height="318" rx="18" fill="#0b1220" stroke="#1e293b" stroke-width="2"/><rect x="24" y="24" width="360" height="272" rx="14" fill="#0f172a" stroke="#7f1d1d" stroke-width="1.5"/><text x="44" y="58" font-size="20" fill="#f59e0b" font-weight="700" text-anchor="start">Sans Git</text><text x="44" y="78" font-size="13" fill="#94a3b8" font-weight="400" text-anchor="start">Des copies partout…</text><rect x="48" y="96" width="290" height="30" rx="8" fill="#0f172a" stroke="#f59e0b" stroke-width="1.5"/><circle cx="64" cy="111" r="5" fill="#f59e0b"/><text x="76" y="116" font-size="13" fill="#e2e8f0" font-weight="400" text-anchor="start" font-family="ui-monospace, SFMono-Regular, Menlo, monospace">rapport.docx</text><rect x="48" y="132" width="290" height="30" rx="8" fill="#0f172a" stroke="#f59e0b" stroke-width="1.5"/><circle cx="64" cy="147" r="5" fill="#f59e0b"/><text x="76" y="152" font-size="13" fill="#e2e8f0" font-weight="400" text-anchor="start" font-family="ui-monospace, SFMono-Regular, Menlo, monospace">rapport_v2.docx</text><rect x="48" y="168" width="290" height="30" rx="8" fill="#0f172a" stroke="#f59e0b" stroke-width="1.5"/><circle cx="64" cy="183" r="5" fill="#f59e0b"/><text x="76" y="188" font-size="13" fill="#e2e8f0" font-weight="400" text-anchor="start" font-family="ui-monospace, SFMono-Regular, Menlo, monospace">rapport_final.docx</text><rect x="48" y="204" width="290" height="30" rx="8" fill="#0f172a" stroke="#f59e0b" stroke-width="1.5"/><circle cx="64" cy="219" r="5" fill="#f59e0b"/><text x="76" y="224" font-size="13" fill="#e2e8f0" font-weight="400" text-anchor="start" font-family="ui-monospace, SFMono-Regular, Menlo, monospace">rapport_final_VRAI.docx</text><rect x="48" y="240" width="290" height="30" rx="8" fill="#0f172a" stroke="#6366F1" stroke-width="1.5"/><circle cx="64" cy="255" r="5" fill="#6366F1"/><text x="76" y="260" font-size="13" fill="#e2e8f0" font-weight="400" text-anchor="start" font-family="ui-monospace, SFMono-Regular, Menlo, monospace">rapport_final_VRAI_2.docx</text><text x="204" y="292" font-size="13" fill="#94a3b8" font-weight="400" text-anchor="middle">Qui a changé quoi, et pourquoi ?</text><rect x="416" y="24" width="360" height="272" rx="14" fill="#0f172a" stroke="#14532d" stroke-width="1.5"/><text x="436" y="58" font-size="20" fill="#22c55e" font-weight="700" text-anchor="start">Avec Git</text><text x="436" y="78" font-size="13" fill="#94a3b8" font-weight="400" text-anchor="start">Un fichier, un historique</text><path d="M462 170 H690" fill="none" stroke="#94a3b8" stroke-width="3"/><circle cx="462" cy="170" r="15" fill="#22c55e" stroke="#0b1220" stroke-width="4"/><text x="462" y="203" font-size="11" fill="#94a3b8" font-weight="400" text-anchor="middle" font-family="ui-monospace, SFMono-Regular, Menlo, monospace">c1</text><text x="462" y="219" font-size="11.5" fill="#e2e8f0" font-weight="400" text-anchor="middle">Premier</text><text x="462" y="233" font-size="11.5" fill="#e2e8f0" font-weight="400" text-anchor="middle">plan</text><circle cx="538" cy="170" r="15" fill="#22c55e" stroke="#0b1220" stroke-width="4"/><text x="538" y="203" font-size="11" fill="#94a3b8" font-weight="400" text-anchor="middle" font-family="ui-monospace, SFMono-Regular, Menlo, monospace">c2</text><text x="538" y="219" font-size="11.5" fill="#e2e8f0" font-weight="400" text-anchor="middle">Ajoute</text><text x="538" y="233" font-size="11.5" fill="#e2e8f0" font-weight="400" text-anchor="middle">l&#x27;intro</text><circle cx="614" cy="170" r="15" fill="#22c55e" stroke="#0b1220" stroke-width="4"/><text x="614" y="203" font-size="11" fill="#94a3b8" font-weight="400" text-anchor="middle" font-family="ui-monospace, SFMono-Regular, Menlo, monospace">c3</text><text x="614" y="219" font-size="11.5" fill="#e2e8f0" font-weight="400" text-anchor="middle">Corrige</text><text x="614" y="233" font-size="11.5" fill="#e2e8f0" font-weight="400" text-anchor="middle">les fautes</text><circle cx="690" cy="170" r="15" fill="#38bdf8" stroke="#0b1220" stroke-width="4"/><text x="690" y="203" font-size="11" fill="#94a3b8" font-weight="400" text-anchor="middle" font-family="ui-monospace, SFMono-Regular, Menlo, monospace">c4</text><text x="690" y="219" font-size="11.5" fill="#e2e8f0" font-weight="400" text-anchor="middle">Version</text><text x="690" y="233" font-size="11.5" fill="#e2e8f0" font-weight="400" text-anchor="middle">rendue</text><rect x="666.1" y="114" width="47.8" height="22" rx="11" fill="#22c55e" stroke="#22c55e" stroke-width="1.5"/><text x="690.0" y="130" font-size="12" fill="#0b1220" font-weight="700" text-anchor="middle">main</text><rect x="666.1" y="90" width="47.8" height="22" rx="11" fill="#38bdf8" stroke="#38bdf8" stroke-width="1.5"/><text x="690.0" y="106" font-size="12" fill="#0b1220" font-weight="700" text-anchor="middle">HEAD</text><text x="596" y="268" font-size="13" fill="#94a3b8" font-weight="400" text-anchor="middle">Chaque commit = une photo + un message</text></svg>